PathFileType	4	(X/Y/Z)	pose_F01_0-96.trc
DataRate	CameraRate	NumFrames	NumMarkers	Units	OrigDataRate	OrigDataStartFrame	OrigNumFrames
30	30	10	21	m	30	64	96
Frame#	Time	CHip			RHip			RKnee			RAnkle			RBigToe			RSmallToe			RHeel			LHip			LKnee			LAnkle			LBigToe			LSmallToe			LHeel			Neck			Nose			RShoulder			RElbow			RWrist			LShoulder			LElbow			LWrist			
		X1	Y1	Z1	X2	Y2	Z2	X3	Y3	Z3	X4	Y4	Z4	X5	Y5	Z5	X6	Y6	Z6	X7	Y7	Z7	X8	Y8	Z8	X9	Y9	Z9	X10	Y10	Z10	X11	Y11	Z11	X12	Y12	Z12	X13	Y13	Z13	X14	Y14	Z14	X15	Y15	Z15	X16	Y16	Z16	X17	Y17	Z17	X18	Y18	Z18	X19	Y19	Z19	X20	Y20	Z20	X21	Y21	Z21	
64	2.1333333333333333	-0.2183560084280186	1.848366665953988	-0.8500801631241754	-0.2323341233877123	1.8468484884209797	-0.7818704589316874																-0.9391477253184624	1.752173346458164	-0.2277473250282692	-0.22019718614695027	1.7118971829330867	-0.7565572027077906													-0.21754124488467882	2.0044797727373957	-0.8653483970313021	-0.18894983266812687	2.04410244065337	-0.8879113911352629	-0.2374079808125109	2.0030138733233716	-0.7773596899827044	-1.275162609098217	1.831414024701423	0.3216277306765439	-0.21450586599950763	1.990196025371802	-0.7979924836488296	-0.19852041397849582	2.007533869162464	-0.9529096624245295	-0.17615916654676342	1.9416250827247723	-1.0094575892062176	-0.18039920761398445	1.9960733679420088	-0.9502038342241894
65	2.1666666666666665	-0.2185662502565538	1.8431152783803866	-0.8498220168729588	-0.23117017327697453	1.8420919859724643	-0.7866855056286622																-0.9367999365961421	1.7475163765551998	-0.23367089701524502	-0.22019718614695027	1.7118971829330867	-0.7565572027077906													-0.216183790721122	2.0034052682355417	-0.8703541419062847	-0.18961988871138208	2.0443542146745135	-0.8909715616021294	-0.23583691461368664	2.002553202708448	-0.7822984680589358	-1.2923467244252969	1.8317275382376017	0.34922885980493856	-0.21003810233491133	1.9883195562623466	-0.7898472868189791	-0.19884985487146048	2.0057652858642974	-0.9528390129613652	-0.18067267051828162	1.940064057729813	-1.0155780314385539	-0.1825131062471735	1.9953274102795413	-0.9835236071238411
66	2.2	-0.22079186752693616	1.8452917227922938	-0.8477313506066031	-0.23235674884273166	1.8432875704046907	-0.7816423598290032																-0.9371736432451149	1.751467482659452	-0.23365207462780754	-0.22019718614695027	1.7118971829330867	-0.7565572027077906													-0.2175991591222686	2.003833926292509	-0.8652546247225166	-0.19352568494391187	2.0432696721194827	-0.8946100915912307	-0.2318345720733764	2.0047617065615118	-0.7786357085398751	-1.2916282206722076	1.836013994392794	0.35954537546616866	-0.18597859723007903	1.9765564849453352	-0.7962297525606157	-0.20440637958053645	2.004515556894123	-0.9513704188745703	-0.18515152745364546	1.9399183583290747	-1.0150105297441283	-0.18998138553600585	1.9803413354076798	-0.9873522484892477
67	2.2333333333333334	-0.22531508370757758	1.8431313541887606	-0.8431645371544345	-0.234436650763714	1.8402766012949625	-0.7791834971212108																-0.93756121270155	1.7497039350485655	-0.23416645584225318	-0.22019718614695027	1.7118971829330867	-0.7565572027077906													-0.22219298423084352	2.002648754076176	-0.8603844862176014	-0.19363490570827763	2.0428618211579828	-0.8946354311422372	-0.23389866645038643	2.0037143570750144	-0.7761549110936584	-1.2949466953925184	1.8489912685027026	0.3973951122503113	-0.168149078804629	1.982188893545216	-0.8179816055937111	-0.20849359709567672	2.0036706125312054	-0.9436650507922789	-0.1896303843890093	1.9397726589283364	-1.014443028049703	-0.1910433516147201	1.981292000437648	-0.9793689191200527
68	2.2666666666666666	-0.22814222113333507	1.847901340056507	-0.8410348440518305	-0.23818262362755552	1.8467984577152858	-0.7800716689816173																-0.943312958613159	1.755215408534671	-0.22883882691549606	-0.22019718614695027	1.7118971829330867	-0.7565572027077906													-0.2222756016663359	2.004458940197043	-0.8606828850876992	-0.19293953805258052	2.041263591403297	-0.8913769674149843	-0.23442650024415235	2.008261636172699	-0.7793537136612029	-1.317467813465501	1.869180917182023	0.4296260806906366	-0.18153557201966275	1.9714671624988116	-0.8563933764670286	-0.20870578104195983	2.0019833733021364	-0.943635511492943	-0.193252403084285	1.938650592904697	-1.004057255203339	-0.18760539943817575	1.9798772048631774	-0.9762783715608455
69	2.3	-0.22802068352774696	1.8462747182250177	-0.8407564987523073	-0.2393378610340116	1.8444808331365723	-0.774809385324941																-0.9483831360397317	1.7534500861682805	-0.2183737726767689	-0.22019718614695027	1.7118971829330867	-0.7565572027077906													-0.2238646764834259	2.0037654965045357	-0.855464584256061	-0.19287696206986074	2.040134970244392	-0.8908825966921877	-0.2340227301607403	2.005976482555744	-0.7767601352133355	-0.21332941655583465	1.9595242407955533	-0.7106909861040102	-0.1668574196607231	1.970952646120508	-0.847752543622203	-0.2121260182987324	2.0006669759743287	-0.933424032352492	-0.19276989786539928	1.9373573842202654	-1.0081257342738474	-0.1853444070399485	1.9725482742555043	-0.9783451713346898
70	2.3333333333333335	-0.2273001731802049	1.840766549559048	-0.8373661772166981	-0.23663764666573958	1.8375538087439611	-0.773230407401999																-0.9437661383714055	1.7495386291641635	-0.21919548615804138	-0.22019718614695027	1.7118971829330867	-0.7565572027077906													-0.21931766141571105	2.00140073264645	-0.8597327200243994	-0.19294229892223383	2.04163870714868	-0.8912702743126759	-0.23328840530198916	2.0031572739969787	-0.7735899963627637	-0.2355545867058471	1.9450358460504054	-0.6771875530204152	-0.22003115840256043	1.9372838496755502	-0.7145174426688998	-0.20564036094246552	1.9998160179250992	-0.9427516343652292	-0.19228739264651354	1.9360641755358339	-1.0121942133443558	-0.1849635008760409	1.9755937784171156	-0.9791609377702934
71	2.3666666666666667	-0.21961037439211975	1.844475579608033	-0.8448553574223038	-0.22658393214580472	1.8425294253858322	-0.783214007998744																-0.9456069740105687	1.7464291057628891	-0.21540530765723762	-0.22019718614695027	1.7118971829330867	-0.7565572027077906													-0.216128158619458	2.000993088725387	-0.8698948162774843	-0.19425023066549296	2.0434652225713696	-0.8970072356480548	-0.23120995812440095	2.0017435038692426	-0.7867693698642142	-0.25102641148968985	1.9539266273507903	-0.6845445374868315	-0.2732048971443978	1.9036150532305927	-0.5812823417155967	-0.2075414383595167	2.0008737024722416	-0.9512877633546006	-0.18826618451345373	1.9378386610030929	-1.0211155499657845	-0.1845825947121333	1.9786392825787271	-0.979976704205897
72	2.4	-0.21944298273866567	1.846690717968539	-0.847690992407466	-0.22731348335183088	1.8444000279255592	-0.7852981537136543																-0.9689308977294845	1.7450399102981633	-0.19888414845877925	-0.22019718614695027	1.7118971829330867	-0.7565572027077906													-0.2168522237404686	2.0026924879878614	-0.8730573476011643	-0.19424189070166295	2.0476084026058015	-0.8974268647875547	-0.23136779596549353	2.0020465871018045	-0.7867743016860937	-1.382905972590078	1.8479408023447317	0.4764908285110901	-0.2782507967491977	1.911633351903593	-0.5896383953507749	-0.20271523766178576	2.001215418356358	-0.9557286325495608	-0.18424497638039394	1.9396131464703517	-1.030036886587213	-0.18420168854822572	1.9816847867403384	-0.9807924706415005
73	2.433333333333333	-0.2192755910852116	1.848905856329045	-0.8505266273926282	-0.22804303455785704	1.8462706304652863	-0.7873822994285647																-0.9616794363646811	1.746737975713118	-0.20432952213332667	-0.22019718614695027	1.7118971829330867	-0.7565572027077906													-0.21686782845858033	2.0030093340606303	-0.8731075856270893	-0.19574970367583647	2.049806776566565	-0.8927075591969549	-0.23587680536783892	2.0032135746368946	-0.7827139032347181	-1.3728248651949286	1.8496273668100307	0.44525898664642727	-0.2832966963539977	1.9196516505765933	-0.5979944489859532	-0.20090475999645596	2.00113547084865	-0.9609163868885545	-0.18428074423303084	1.938914827400427	-1.0301305596700163	-0.18382078238431815	1.9847302909019497	-0.9816082370771042
